<mxfile host="app.diagrams.net" agent="Mozilla/5.0 (Macintosh; Intel Mac OS X 10_15_7) AppleWebKit/605.1.15 (KHTML, like Gecko) Version/17.5 Safari/605.1.15" version="28.0.6">
  <diagram name="Strona-1" id="9SifspkCVHf2qICPZMRt">
    <mxGraphModel dx="2777" dy="1487" grid="1" gridSize="10" guides="1" tooltips="1" connect="1" arrows="1" fold="1" page="0" pageScale="1" pageWidth="827" pageHeight="1169" math="0" shadow="0">
      <root>
        <mxCell id="0" />
        <mxCell id="1" parent="0" />
        <mxCell id="eXqVwRkYhJMHdrjXKYlL-1" value="" style="points=[[0.145,0.145,0],[0.5,0,0],[0.855,0.145,0],[1,0.5,0],[0.855,0.855,0],[0.5,1,0],[0.145,0.855,0],[0,0.5,0]];shape=mxgraph.bpmn.event;html=1;verticalLabelPosition=bottom;labelBackgroundColor=#ffffff;verticalAlign=top;align=center;perimeter=ellipsePerimeter;outlineConnect=0;aspect=fixed;outline=standard;symbol=general;strokeColor=default;" vertex="1" parent="1">
          <mxGeometry x="-840" y="-50" width="50" height="50" as="geometry" />
        </mxCell>
        <mxCell id="eXqVwRkYhJMHdrjXKYlL-2" value="Rozmiar buta nie jest&amp;nbsp;&lt;div&gt;dostępny na półce&lt;/div&gt;&lt;div&gt;&amp;nbsp;ekspozycyjnej&lt;/div&gt;" style="text;html=1;align=center;verticalAlign=middle;resizable=0;points=[];autosize=1;strokeColor=none;fillColor=none;" vertex="1" parent="1">
          <mxGeometry x="-885" y="-125" width="140" height="60" as="geometry" />
        </mxCell>
        <mxCell id="eXqVwRkYhJMHdrjXKYlL-6" style="edgeStyle=orthogonalEdgeStyle;rounded=0;orthogonalLoop=1;jettySize=auto;html=1;" edge="1" parent="1" source="eXqVwRkYhJMHdrjXKYlL-3" target="eXqVwRkYhJMHdrjXKYlL-5">
          <mxGeometry relative="1" as="geometry" />
        </mxCell>
        <mxCell id="eXqVwRkYhJMHdrjXKYlL-3" value="Sprawdzić czy rozmiar jest dostępny na magazynie" style="points=[[0.25,0,0],[0.5,0,0],[0.75,0,0],[1,0.25,0],[1,0.5,0],[1,0.75,0],[0.75,1,0],[0.5,1,0],[0.25,1,0],[0,0.75,0],[0,0.5,0],[0,0.25,0]];shape=mxgraph.bpmn.task2;whiteSpace=wrap;rectStyle=rounded;size=10;html=1;container=1;expand=0;collapsible=0;taskMarker=abstract;" vertex="1" parent="1">
          <mxGeometry x="-670" y="-65" width="120" height="80" as="geometry" />
        </mxCell>
        <mxCell id="eXqVwRkYhJMHdrjXKYlL-4" style="edgeStyle=orthogonalEdgeStyle;rounded=0;orthogonalLoop=1;jettySize=auto;html=1;entryX=0;entryY=0.5;entryDx=0;entryDy=0;entryPerimeter=0;" edge="1" parent="1" source="eXqVwRkYhJMHdrjXKYlL-1" target="eXqVwRkYhJMHdrjXKYlL-3">
          <mxGeometry relative="1" as="geometry" />
        </mxCell>
        <mxCell id="eXqVwRkYhJMHdrjXKYlL-5" value="" style="points=[[0.25,0.25,0],[0.5,0,0],[0.75,0.25,0],[1,0.5,0],[0.75,0.75,0],[0.5,1,0],[0.25,0.75,0],[0,0.5,0]];shape=mxgraph.bpmn.gateway2;html=1;verticalLabelPosition=bottom;labelBackgroundColor=#ffffff;verticalAlign=top;align=center;perimeter=rhombusPerimeter;outlineConnect=0;outline=none;symbol=none;gwType=exclusive;" vertex="1" parent="1">
          <mxGeometry x="-410" y="-65" width="90" height="80" as="geometry" />
        </mxCell>
        <mxCell id="eXqVwRkYhJMHdrjXKYlL-7" value="Czy jest dostępny?" style="text;html=1;align=center;verticalAlign=middle;resizable=0;points=[];autosize=1;strokeColor=none;fillColor=none;" vertex="1" parent="1">
          <mxGeometry x="-430" y="-102" width="120" height="30" as="geometry" />
        </mxCell>
        <mxCell id="eXqVwRkYhJMHdrjXKYlL-8" value="&lt;span style=&quot;text-align: start; caret-color: rgb(0, 0, 0); font-size: medium; color: rgb(0, 0, 0);&quot;&gt;Pobrać buty z magazynu&lt;/span&gt;" style="points=[[0.25,0,0],[0.5,0,0],[0.75,0,0],[1,0.25,0],[1,0.5,0],[1,0.75,0],[0.75,1,0],[0.5,1,0],[0.25,1,0],[0,0.75,0],[0,0.5,0],[0,0.25,0]];shape=mxgraph.bpmn.task2;whiteSpace=wrap;rectStyle=rounded;size=10;html=1;container=1;expand=0;collapsible=0;taskMarker=abstract;" vertex="1" parent="1">
          <mxGeometry x="-190" y="-65" width="120" height="80" as="geometry" />
        </mxCell>
        <mxCell id="eXqVwRkYhJMHdrjXKYlL-20" style="edgeStyle=orthogonalEdgeStyle;rounded=0;orthogonalLoop=1;jettySize=auto;html=1;exitX=0.5;exitY=1;exitDx=0;exitDy=0;exitPerimeter=0;" edge="1" parent="1" source="eXqVwRkYhJMHdrjXKYlL-9" target="eXqVwRkYhJMHdrjXKYlL-19">
          <mxGeometry relative="1" as="geometry" />
        </mxCell>
        <mxCell id="eXqVwRkYhJMHdrjXKYlL-9" value="&lt;span style=&quot;text-align: start; caret-color: rgb(0, 0, 0); font-size: medium; color: rgb(0, 0, 0);&quot;&gt;Sprawdzić dostępność w innym sklepie (telefon)&lt;/span&gt;" style="points=[[0.25,0,0],[0.5,0,0],[0.75,0,0],[1,0.25,0],[1,0.5,0],[1,0.75,0],[0.75,1,0],[0.5,1,0],[0.25,1,0],[0,0.75,0],[0,0.5,0],[0,0.25,0]];shape=mxgraph.bpmn.task2;whiteSpace=wrap;rectStyle=rounded;size=10;html=1;container=1;expand=0;collapsible=0;taskMarker=abstract;" vertex="1" parent="1">
          <mxGeometry x="-190" y="118" width="120" height="80" as="geometry" />
        </mxCell>
        <mxCell id="eXqVwRkYhJMHdrjXKYlL-10" style="edgeStyle=orthogonalEdgeStyle;rounded=0;orthogonalLoop=1;jettySize=auto;html=1;entryX=0;entryY=0.5;entryDx=0;entryDy=0;entryPerimeter=0;" edge="1" parent="1" source="eXqVwRkYhJMHdrjXKYlL-5" target="eXqVwRkYhJMHdrjXKYlL-8">
          <mxGeometry relative="1" as="geometry" />
        </mxCell>
        <mxCell id="eXqVwRkYhJMHdrjXKYlL-11" style="edgeStyle=orthogonalEdgeStyle;rounded=0;orthogonalLoop=1;jettySize=auto;html=1;entryX=0;entryY=0.5;entryDx=0;entryDy=0;entryPerimeter=0;" edge="1" parent="1" source="eXqVwRkYhJMHdrjXKYlL-5" target="eXqVwRkYhJMHdrjXKYlL-9">
          <mxGeometry relative="1" as="geometry">
            <mxPoint x="-190" y="178" as="targetPoint" />
            <Array as="points">
              <mxPoint x="-365" y="158" />
            </Array>
          </mxGeometry>
        </mxCell>
        <mxCell id="eXqVwRkYhJMHdrjXKYlL-12" value="TAK" style="text;html=1;align=center;verticalAlign=middle;resizable=0;points=[];autosize=1;strokeColor=none;fillColor=none;" vertex="1" parent="1">
          <mxGeometry x="-255" y="-72" width="50" height="30" as="geometry" />
        </mxCell>
        <mxCell id="eXqVwRkYhJMHdrjXKYlL-13" value="NIE" style="text;html=1;align=center;verticalAlign=middle;resizable=0;points=[];autosize=1;strokeColor=none;fillColor=none;" vertex="1" parent="1">
          <mxGeometry x="-250" y="118" width="40" height="30" as="geometry" />
        </mxCell>
        <mxCell id="eXqVwRkYhJMHdrjXKYlL-17" style="edgeStyle=orthogonalEdgeStyle;rounded=0;orthogonalLoop=1;jettySize=auto;html=1;exitX=1;exitY=0.5;exitDx=0;exitDy=0;exitPerimeter=0;" edge="1" parent="1" source="eXqVwRkYhJMHdrjXKYlL-14" target="eXqVwRkYhJMHdrjXKYlL-16">
          <mxGeometry relative="1" as="geometry" />
        </mxCell>
        <mxCell id="eXqVwRkYhJMHdrjXKYlL-14" value="Sprzedać buty klientowi" style="points=[[0.25,0,0],[0.5,0,0],[0.75,0,0],[1,0.25,0],[1,0.5,0],[1,0.75,0],[0.75,1,0],[0.5,1,0],[0.25,1,0],[0,0.75,0],[0,0.5,0],[0,0.25,0]];shape=mxgraph.bpmn.task2;whiteSpace=wrap;rectStyle=rounded;size=10;html=1;container=1;expand=0;collapsible=0;taskMarker=abstract;" vertex="1" parent="1">
          <mxGeometry x="50" y="-65" width="120" height="80" as="geometry" />
        </mxCell>
        <mxCell id="eXqVwRkYhJMHdrjXKYlL-15" style="edgeStyle=orthogonalEdgeStyle;rounded=0;orthogonalLoop=1;jettySize=auto;html=1;exitX=1;exitY=0.5;exitDx=0;exitDy=0;exitPerimeter=0;entryX=0;entryY=0.5;entryDx=0;entryDy=0;entryPerimeter=0;" edge="1" parent="1" source="eXqVwRkYhJMHdrjXKYlL-8" target="eXqVwRkYhJMHdrjXKYlL-14">
          <mxGeometry relative="1" as="geometry" />
        </mxCell>
        <mxCell id="eXqVwRkYhJMHdrjXKYlL-16" value="" style="points=[[0.145,0.145,0],[0.5,0,0],[0.855,0.145,0],[1,0.5,0],[0.855,0.855,0],[0.5,1,0],[0.145,0.855,0],[0,0.5,0]];shape=mxgraph.bpmn.event;html=1;verticalLabelPosition=bottom;labelBackgroundColor=#ffffff;verticalAlign=top;align=center;perimeter=ellipsePerimeter;outlineConnect=0;aspect=fixed;outline=throwing;symbol=general;" vertex="1" parent="1">
          <mxGeometry x="310" y="-50" width="50" height="50" as="geometry" />
        </mxCell>
        <mxCell id="eXqVwRkYhJMHdrjXKYlL-18" value="Buty zostały sprzedane" style="text;html=1;align=center;verticalAlign=middle;resizable=0;points=[];autosize=1;strokeColor=none;fillColor=none;" vertex="1" parent="1">
          <mxGeometry x="265" y="-82" width="150" height="30" as="geometry" />
        </mxCell>
        <mxCell id="eXqVwRkYhJMHdrjXKYlL-19" value="" style="points=[[0.25,0.25,0],[0.5,0,0],[0.75,0.25,0],[1,0.5,0],[0.75,0.75,0],[0.5,1,0],[0.25,0.75,0],[0,0.5,0]];shape=mxgraph.bpmn.gateway2;html=1;verticalLabelPosition=bottom;labelBackgroundColor=#ffffff;verticalAlign=top;align=center;perimeter=rhombusPerimeter;outlineConnect=0;outline=none;symbol=none;gwType=exclusive;" vertex="1" parent="1">
          <mxGeometry x="-176.25" y="310" width="92.5" height="90" as="geometry" />
        </mxCell>
        <mxCell id="eXqVwRkYhJMHdrjXKYlL-21" value="Czy są dostępne?" style="text;html=1;align=center;verticalAlign=middle;resizable=0;points=[];autosize=1;strokeColor=none;fillColor=none;" vertex="1" parent="1">
          <mxGeometry x="-290" y="318" width="120" height="30" as="geometry" />
        </mxCell>
        <mxCell id="eXqVwRkYhJMHdrjXKYlL-23" value="Skierować klienta do innego sklepu" style="points=[[0.25,0,0],[0.5,0,0],[0.75,0,0],[1,0.25,0],[1,0.5,0],[1,0.75,0],[0.75,1,0],[0.5,1,0],[0.25,1,0],[0,0.75,0],[0,0.5,0],[0,0.25,0]];shape=mxgraph.bpmn.task2;whiteSpace=wrap;rectStyle=rounded;size=10;html=1;container=1;expand=0;collapsible=0;taskMarker=abstract;" vertex="1" parent="1">
          <mxGeometry x="50" y="315" width="120" height="80" as="geometry" />
        </mxCell>
        <mxCell id="eXqVwRkYhJMHdrjXKYlL-24" value="Zamówić internetowo" style="points=[[0.25,0,0],[0.5,0,0],[0.75,0,0],[1,0.25,0],[1,0.5,0],[1,0.75,0],[0.75,1,0],[0.5,1,0],[0.25,1,0],[0,0.75,0],[0,0.5,0],[0,0.25,0]];shape=mxgraph.bpmn.task2;whiteSpace=wrap;rectStyle=rounded;size=10;html=1;container=1;expand=0;collapsible=0;taskMarker=abstract;" vertex="1" parent="1">
          <mxGeometry x="50" y="470" width="120" height="80" as="geometry" />
        </mxCell>
        <mxCell id="eXqVwRkYhJMHdrjXKYlL-25" style="edgeStyle=orthogonalEdgeStyle;rounded=0;orthogonalLoop=1;jettySize=auto;html=1;entryX=0;entryY=0.5;entryDx=0;entryDy=0;entryPerimeter=0;" edge="1" parent="1" source="eXqVwRkYhJMHdrjXKYlL-19" target="eXqVwRkYhJMHdrjXKYlL-23">
          <mxGeometry relative="1" as="geometry" />
        </mxCell>
        <mxCell id="eXqVwRkYhJMHdrjXKYlL-26" style="edgeStyle=orthogonalEdgeStyle;rounded=0;orthogonalLoop=1;jettySize=auto;html=1;entryX=0;entryY=0.75;entryDx=0;entryDy=0;entryPerimeter=0;" edge="1" parent="1" source="eXqVwRkYhJMHdrjXKYlL-19" target="eXqVwRkYhJMHdrjXKYlL-24">
          <mxGeometry relative="1" as="geometry">
            <Array as="points">
              <mxPoint x="-126" y="530" />
            </Array>
          </mxGeometry>
        </mxCell>
        <mxCell id="eXqVwRkYhJMHdrjXKYlL-27" value="TAK" style="text;html=1;align=center;verticalAlign=middle;resizable=0;points=[];autosize=1;strokeColor=none;fillColor=none;" vertex="1" parent="1">
          <mxGeometry x="-25" y="318" width="50" height="30" as="geometry" />
        </mxCell>
        <mxCell id="eXqVwRkYhJMHdrjXKYlL-28" value="NIE" style="text;html=1;align=center;verticalAlign=middle;resizable=0;points=[];autosize=1;strokeColor=none;fillColor=none;" vertex="1" parent="1">
          <mxGeometry x="-10" y="498" width="40" height="30" as="geometry" />
        </mxCell>
        <mxCell id="eXqVwRkYhJMHdrjXKYlL-33" style="edgeStyle=orthogonalEdgeStyle;rounded=0;orthogonalLoop=1;jettySize=auto;html=1;exitX=1;exitY=0.5;exitDx=0;exitDy=0;exitPerimeter=0;" edge="1" parent="1" source="eXqVwRkYhJMHdrjXKYlL-29" target="eXqVwRkYhJMHdrjXKYlL-32">
          <mxGeometry relative="1" as="geometry" />
        </mxCell>
        <mxCell id="eXqVwRkYhJMHdrjXKYlL-29" value="" style="points=[[0.25,0.25,0],[0.5,0,0],[0.75,0.25,0],[1,0.5,0],[0.75,0.75,0],[0.5,1,0],[0.25,0.75,0],[0,0.5,0]];shape=mxgraph.bpmn.gateway2;html=1;verticalLabelPosition=bottom;labelBackgroundColor=#ffffff;verticalAlign=top;align=center;perimeter=rhombusPerimeter;outlineConnect=0;outline=none;symbol=none;gwType=exclusive;" vertex="1" parent="1">
          <mxGeometry x="300" y="390" width="95" height="80" as="geometry" />
        </mxCell>
        <mxCell id="eXqVwRkYhJMHdrjXKYlL-30" style="edgeStyle=orthogonalEdgeStyle;rounded=0;orthogonalLoop=1;jettySize=auto;html=1;entryX=0.5;entryY=0;entryDx=0;entryDy=0;entryPerimeter=0;" edge="1" parent="1" source="eXqVwRkYhJMHdrjXKYlL-23" target="eXqVwRkYhJMHdrjXKYlL-29">
          <mxGeometry relative="1" as="geometry" />
        </mxCell>
        <mxCell id="eXqVwRkYhJMHdrjXKYlL-31" style="edgeStyle=orthogonalEdgeStyle;rounded=0;orthogonalLoop=1;jettySize=auto;html=1;entryX=0.5;entryY=1;entryDx=0;entryDy=0;entryPerimeter=0;" edge="1" parent="1" source="eXqVwRkYhJMHdrjXKYlL-24" target="eXqVwRkYhJMHdrjXKYlL-29">
          <mxGeometry relative="1" as="geometry" />
        </mxCell>
        <mxCell id="eXqVwRkYhJMHdrjXKYlL-32" value="" style="points=[[0.145,0.145,0],[0.5,0,0],[0.855,0.145,0],[1,0.5,0],[0.855,0.855,0],[0.5,1,0],[0.145,0.855,0],[0,0.5,0]];shape=mxgraph.bpmn.event;html=1;verticalLabelPosition=bottom;labelBackgroundColor=#ffffff;verticalAlign=top;align=center;perimeter=ellipsePerimeter;outlineConnect=0;aspect=fixed;outline=end;symbol=terminate2;" vertex="1" parent="1">
          <mxGeometry x="490" y="405" width="50" height="50" as="geometry" />
        </mxCell>
        <mxCell id="eXqVwRkYhJMHdrjXKYlL-34" value="Buty nie zostały sprzedane" style="text;html=1;align=center;verticalAlign=middle;resizable=0;points=[];autosize=1;strokeColor=none;fillColor=none;" vertex="1" parent="1">
          <mxGeometry x="425" y="365" width="170" height="30" as="geometry" />
        </mxCell>
      </root>
    </mxGraphModel>
  </diagram>
</mxfile>
